<svg height="225" viewBox="0 0 536 225" width="536" xmlns="http://www.w3.org/2000/svg"><g fill="none"><path d="m251.391 109.791-7.165 20.696-27.081 10.669 7.165-20.696zm47.29-18.632-7.165 20.697-27.081 10.669 7.165-20.696zm47.29-18.631-7.165 20.696-27.081 10.669 7.165-20.696zm47.289-18.631-7.164 20.696-27.081 10.669 7.164-20.696zm54.054-30.896h-429.554v180.041h429.554-429.554v-62.752l132.055 9.519 6.997-2.757-1.101 3.182 17.028 1.227 4.282-12.371 27.081-10.67-7.165 20.697-8.773 3.457 259.15 18.679v-148.253" fill="#fff" fill-opacity=".5"/><path d="m447.313 203.043h-429.554v-62.752l429.554 30.964z" fill="#0fa3f2"/><path d="m251.391 109.791-27.081 10.669-7.165 20.696 27.081-10.669zm-47.29 18.631-27.081 10.67-4.282 12.371 15.425 1.113 8.773-3.457z" fill="#fff"/><path d="m172.738 151.463-2.883 8.325 18.308-7.212z" fill="#c3e8fc"/><path d="m535.367 15.783-6.109-15.466-21.21 8.356-7.165 20.697 34.484-13.586m-189.396 56.745-27.081 10.669-7.165 20.696 27.081-10.669zm-47.29 18.63-27.081 10.67-7.165 20.696 27.081-10.669zm-141.869 55.895-6.997 2.757 5.896.426 1.101-3.182" fill="#fff"/><path d="m149.814 149.81-20.082 7.913-7.165 20.696 27.081-10.669 6.063-17.513-5.896-.426m-40.292 15.873-44.894 17.687 6.11 15.466 31.619-12.457 7.165-20.697" fill="#c3e8fc"/><path d="m440.549 35.266-27.081 10.669-7.164 20.697 27.08-10.67zm40.125 2.065 7.165-20.696-27.081 10.669-7.165 20.696zm-87.415 16.567-27.081 10.669-7.164 20.696 27.081-10.669z" fill="#fff"/><path d="m453.593 48 7.165-20.696-20.209 7.961-7.165 20.696zm-60.334 5.898-7.164 20.696 20.209-7.961 7.164-20.697-20.209 7.963m-47.288 18.63-7.165 20.697 20.209-7.963 7.165-20.696-20.209 7.961m-47.29 18.632-7.165 20.696 20.209-7.963 7.165-20.696zm-47.29 18.631-7.165 20.696 20.209-7.961 7.165-20.696zm-47.29 18.632-7.165 20.696 20.209-7.963 7.165-20.696zm-47.289 18.631-7.164 20.696 20.208-7.961 7.165-20.696zm344.071-117.684 7.165-20.697-20.209 7.963-7.165 20.696 20.209-7.961m-391.36 136.313-7.165 20.697 20.209-7.963 7.164-20.696-20.208 7.961" fill="#f93d3d"/><path d="m447.313 171.255s51.697 3.972 55.498 53.745h-55.498" fill="#0fa3f2"/><path d="m447.313 3.325h-433.994c-7.356 0-13.32 5.955-13.32 13.3v195.486c0 7.345 5.964 12.888 13.32 12.888h433.994v-22.167h-429.554v-179.557h429.554v-19.951z" fill="#fff" fill-opacity=".9"/></g></svg>
