<svg height="94" viewBox="0 0 110 94" width="110" xmlns="http://www.w3.org/2000/svg"><g fill="none"><path d="m109.91 56.248s-9.508 9.97-19.966 8.82c-10.81-1.189-17.595-12.952-17.595-12.952" fill="#179b49"/><path d="m72.349 52.116s9.508-9.97 19.966-8.819c10.805 1.189 17.595 12.951 17.595 12.951" fill="#4ab64b"/><path d="m70.002-.02s9.922 9.555 8.777 20.065c-1.183 10.863-12.888 17.681-12.888 17.681" fill="#179b49"/><path d="m65.891 37.726s-9.921-9.555-8.776-20.064c1.183-10.863 12.887-17.682 12.887-17.682" fill="#4ab64b"/><path d="m71.512 43.762c-1.196-2.464-4.153-3.488-6.605-2.286l-.362.201c-9.126-14.217-27.592-19.657-43.101-12.058-15.522 7.606-22.629 25.6-17.077 41.59-.236.075-.471.161-.701.274-2.208 1.081-3.247 3.597-2.562 5.885l70.722-32.764c-.079-.284-.181-.566-.314-.842" fill="#ffc41f"/><path d="m1.105 77.368c.076.254.167.506.286.752 1.196 2.464 4.153 3.488 6.605 2.287.306-.151.59-.328.85-.529 9.409 13.176 27.166 18.016 42.16 10.669 14.977-7.339 22.119-24.35 17.614-39.901.208-.069.414-.147.617-.246 2.178-1.068 3.221-3.531 2.59-5.796l-70.722 32.764" fill="#fcb910"/></g></svg>