<svg height="522" viewBox="0 0 980 522" width="980" xmlns="http://www.w3.org/2000/svg"><g fill="none" fill-rule="evenodd" transform="translate(.385366)"><path d="m113.703449 183.151794c-.137797 0-.347046.058678-.405738-.007654-3.567435-4.166141-8.262772-7.115351-12.001179-11.174341v-16.48343c-3.1616965-3.120141-6.3004271-6.222424-9.6790281-9.559419h-6.4458808l-9.9137954-9.914039h-35.8453238c-6.5326425 6.531122-13.0754922 13.075-19.7076555 19.705619h-5.2031476c.354702-.477078-.2858031.224508-.2551814-.326556.0051037-.102049.178627-.196444.2755959-.29339 3.2254922-3.217088 6.4509844-6.436727 9.6509585-9.628303v-5.212141h-9.8448963l-10.83500004-10.832478v-1.423581l10.66147664-10.658995v-3.678858h-10.38332897c-1.63060881-2.569078-3.19742228-5.053966-3.77158031-8.255747h12.27677458c.643057-1.681253.0382772-3.296175.4338083-5.008043h-8.81651552c-.80382125-1.2679565-.18117876-2.5384639-.47463731-3.5410931 5.17507772-5.171322 10.24297923-10.2405951 15.54819953-15.5445805h28.1056735l7.3415674 7.3398585h76.1945987c3.319909 3.3472 6.619404 6.6790927 9.857655 9.9472049h49.816503c3.325013-3.324239 6.64237-6.6433756 9.913795-9.914039h14.542785c.030622 1.5562439.074003 3.1533073.089314 4.7478195.01531 1.6404341.002551 3.2783171.002551 4.8396634.95693.441361 1.770959.813839 2.71513 1.2475463.359806-.3112487.757888-.6556634 1.283562-1.1123317v-5.7172829l8.094352-8.0899171 5.208252 5.2095903v12.0698194h-6.884793c-2.000622 2.000156-3.85579 3.854893-5.858964 5.855049h-9.408536v11.06719c-4.251321 4.245229-8.352086 8.34759-12.503886 12.500976v9.755863c1.768407 1.767995 3.516399 3.515581 5.555298 5.554005h10.485401l8.35719 8.355244h8.688924c.007656 1.722073.015311 3.464556.017863 5.204488.002552 1.655741 0 3.311483 0 4.806497 1.635713 1.625127 3.192319 3.168615 4.942863 4.908547h5.731373c.035725-1.581756.081658-3.186474.099521-4.791191.01531-1.517975.002551-3.038502.002551-4.377892 2.51864-2.518054 4.947967-4.946815 7.328809-7.327103v-7.253117c-2.046555-2.046078-4.195182-4.194205-6.422915-6.421419v-18.585634h10.424158c2.903964 2.903287 5.930415 5.929034 8.967073 8.967536h6.024831c.410842 1.696561.153109 3.459454.19649 5.194283.043381 1.775649.007655 3.551298.007655 5.457059h9.023213v-9.449717c3.804754 3.803868 7.540609 7.541404 11.70772 11.707546v8.357795c4.585609 4.584541 9.633096 9.630854 14.499404 14.496029-2.960103 2.959415-6.160078 6.158644-9.862759 9.857912h-20.05215c-.553744.757713-.273044 1.441439-.29601 2.387942h8.977279v4.885585h-3.82772v5.377971c1.127902 1.122537 2.388498 2.377737 3.998692 3.977351h5.450673c.584366.913337.079107 1.367454-.413393 1.857288-2.059314 2.043527-4.10842 4.097259-6.257047 6.247937h-4.409534c-.729818-1.204176.234767-2.678781-.561399-3.969698h-6.384637l-13.996697 13.993439v5.485122c-2.197111 2.145576-4.46057 4.354932-6.685751 6.52602v5.023351c-4.422293 4.421263-8.816516 8.814463-13.21329 13.210214 3.322461 3.301278 6.644922 6.602556 9.809171 9.745659-1.602539 1.604717-3.15149 3.150756-4.945415 4.944263-3.774132-3.370161-7.252254-7.240361-11.10294-10.880951h-29.580622l-9.783653 9.781376v22.080805l5.27715 5.275922h11.220324v-7.191888h14.568303c-2.880997 2.882878-5.856412 5.855049-8.597059 8.595058v7.651108h15.568614c.153109 2.410902.061243 4.704448.076554 6.98779.017863 2.209356.005104 4.418712.005104 6.408663 2.436982 2.436415 4.766787 4.765678 7.400259 7.398537h9.196736l7.369637-7.367922h31.160194c4.958174 4.967224 9.931658 9.952307 14.884728 14.914429 3.358187 0 6.670441 0 9.985246.002551 2.735544 2.734908 5.471088 5.469815 8.352086 8.350142h5.264391v13.858224h24.402992c3.697578 3.737537 7.285428 7.36282 10.837552 10.949834h10.214909v10.276313c-4.552435 4.551375-9.232461 9.230312-13.841036 13.837814v20.85622c-5.710958 6.546429-13.039767 11.342722-18.556787 18.07539h-9.6382v17.695259c-11.575026 11.572331-23.002047 22.996692-34.439275 34.431258h-10.748238c-.109728.099498-.229663.178585-.306218.285737-.07145.102048-.140349.234712-.140349.352068-.005104 8.148595-.005104 16.29719-.005104 24.300366-2.600298 2.589488-5.131697 5.107541-7.461502 7.424049v21.514434h-1.656127c.357253-1.3598-.722164-1.954234-1.469845-2.701742-6.632163-6.645927-13.274534-13.281649-20.001114-20.004112v-8.913961c2.796788-2.788483 5.611438-5.594824 8.216839-8.194517v-53.427639c2.7432-2.742561 5.478744-5.477468 8.247462-8.245541v-23.88962c-8.02035-8.015932-16.020285-16.014005-23.961529-23.9534v-16.414546l-10.544093-10.541639c4.118627-4.117669 8.285738-8.286361 12.075181-12.072371v-17.021737h-9.49785c-5.315427-5.316741-10.579818-10.582458-15.923316-15.924712h-8.102007l-7.392604-7.390883h-13.236257c-1.612746-1.683805-3.228044-3.372712-4.761683-4.974878h-6.678096c-3.289288-3.291073-6.494366-6.497956-9.870415-9.875771 1.161075-2.201702 3.539365-3.49517 5.014314-5.559107-18.163809-18.15958-36.330169-36.311507-54.476114-54.486395-.944171-.949054-2.146076-1.696561-2.651335-3.041054 0-5.20959.007656-10.421731-.002551-15.631322-.007656-5.288678.04338-10.582458-.033174-15.860931z" fill="#dfe0de"/><path d="m398.856101.00102049v14.90932681c7.650337.0178586 15.310881 0 22.649896.0102049-6.193251 6.1918098-12.463057 12.4601561-18.393471 18.3891902v32.4642683l-1.464741 1.4644h-16.086632c5.358808 4.1074634 9.365155 9.2634781 14.203394 13.516361-1.712267 2.8497122-12.488575 13.5622829-15.471645 15.3787512h-5.624197-5.680337c-3.080039 3.0818732-6.101386 6.0999661-9.058938 9.0568291h-6.877137c-1.523433 1.525629-3.161697 3.002786-4.611127 4.64322-3.993588 4.523312-9.076801 7.867961-13.300052 12.455053v17.432483c-1.15342.8368-1.607642-.071434-2.143523-.604639-8.114767-8.100122-16.221879-16.207897-24.339197-24.325878v-9.934449c1.587228-1.247546 1.88579-3.70437 3.825168-4.525863 1.883239-.7985317 1.681645-3.3089317 3.580194-3.5359902v-8.5772c-2.975414-2.9721708-5.904896-5.903522-8.982383-8.9802927v-9.0874439c-5.532332-5.5335951-10.901347-10.9064634-16.278018-16.2844342h-21.534754c-4.792306-4.7911902-9.579508-9.577278-14.425402-14.4220439v-4.5233121h14.466231c1.691852-.7908781 2.822306-2.137922 4.05228-3.370161 5.759443-5.7632049 11.526541-11.5238586 17.436541-17.432483h38.570661v-14.11589751z" fill="#dfe0de"/><path d="m566.715157 104.421415h-12.641684v5.00039c2.707474 2.706844 5.412396 5.411136 8.377603 8.378205 1.860272-1.859839 3.873653-3.882956 5.899793-5.893317 3.182112-3.160961 6.1907-6.510713 10.345052-9.112956h13.639443c3.600609-3.6380394 7.188459-7.2658736 10.692098-10.8095175h18.401127c1.860272-1.859839 3.717993-3.7145756 5.685441-5.6841171h13.647098c2.878446 2.9109415 5.876827 5.9443415 9.071697 9.1716342v-5.7223854c-1.155971-1.0817171-2.562021-2.3955951-3.871101-3.6227317v-13.9015951h17.137979v21.9762049c-3.672059 3.6661024-7.561023 7.5490587-11.710272 11.6922387h4.307461c4.483537-4.485044 8.847138-8.847629 13.032112-13.031629-.967137-.9286439-2.135868-2.0511805-2.873342-2.7604195v-14.5853219h16.42092v-8.3373854h17.018044c3.758821-3.7604976 7.374741-7.3730244 11.136114-11.133522v-6.1356829h60.041619c-5.328187 5.3269464-10.829897 10.8273756-16.193808 16.190039.313873.6378049.339391.755161.413393.8265952.089314.0867414.216904.1938926.326632.1938926 19.605583.0076537 39.211166.0076537 58.974962.0076537v7.6842732c2.789132 2.7833805 5.420051 5.4136878 8.339326 8.3271805v-5.1534635h12.483471v-5.7963707h38.866671v6.8500244c.232216.2066488.324081.3163512.438912.3877854.107177.0637805.239871.1250097.359806.1275609 9.094663.0051025 18.191878.0051025 27.431995.0051025v7.2709756h16.872591c2.056761 2.1328195 3.970621 4.1151171 5.76965 5.9775073h6.280013c.52057-2.3420195-.076555-4.8064975.341943-7.3168975h20.292021l7.277772 7.276078h11.906761l12.18491 12.1820731c-3.720545 3.719678-7.576335 7.574571-11.671995 11.666727-3.159145-2.622654-6.244288-6.309166-9.615233-9.398693l-6.422915 6.418869v10.511024h-13.529715c-3.467914 3.490068-6.775065 6.816858-10.038834 10.100278h-15.02763c-1.44943 1.472054-2.901412 2.946658-4.534572 4.6024v14.848098l-18.903834 18.899434v-5.45961c-1.145765-.959259-2.161386-.260224-3.378601-.841903.216904.191342.096968.114805.017862.007654-.071451-.099497-.142901-.22961-.142901-.349517-.007656-4.834561-.007656-9.669122-.007656-14.70778 4.279391-4.278396 8.660855-8.658839 13.042319-13.039283l12.983627-12.980605c-.40829-.530654-.474637-.653112-.571606-.737303-.096969-.079087-.22456-.170931-.339392-.170931-6.063108-.007654-12.126217-.007654-18.066839-.007654-4.419741 4.416161-8.716995 8.714966-13.162254 13.15919h-28.18478l-7.471709 7.469971c-2.345117 2.344571-4.631542 4.752922-7.050661 7.015854-2.4625 2.303751-4.40443 5.196834-7.532953 6.760731l1.314183 1.313878h14.330985v24.455991c-6.170285 6.168848-12.325259 12.32239-18.51851 18.516751h-3.929793c-3.20763 3.209434-6.323394 6.329575-9.699443 9.70739v11.615702c-3.325013 3.321688-6.206011 6.204566-9.087008 9.082342v-18.4096c-4.19263-2.390493-6.915414-6.25559-10.245531-9.194595l-8.066282 8.064405v16.77937l6.576023 6.574493v15.968083c-6.456088 6.454585-12.901969 12.901517-19.409093 19.404576h-16.244845c-3.641438 3.64059-7.139974 7.138312-10.832448 10.832478 1.962344 2.737458 4.748925 4.967224 7.193562 7.508239 2.488018 2.589488 5.067902 5.089683 7.410466 7.431702l-14.019663 14.018951h-.836995c-4.509054-3.880404-8.165803-8.76599-13.037215-12.373414-.07145-.053576-.250077.035717-.551191.089292v8.714966c2.860582 2.8242 5.904896 5.826986 8.900725 8.783849v12.878556c1.038588.96181 2.23794 2.07159 3.340324 3.094629.18373 1.456747-1.099832 1.454196-1.332047 2.081796l-7.652888-7.651108v-7.582224l-6.670441-6.668888v-22.483898c-8.298497-8.299117-16.270363-16.266575-24.007461-24.001873-8.576645 8.5772-17.337021 17.335537-26.600104 26.593913v11.312107c-4.077798 4.074297-8.076489 8.072058-12.105803 12.100434.025518.012756-.091865-.02041-.163316-.094395-.086761-.091844-.188834-.219405-.188834-.331659-.010207-5.786166-.007655-11.572331-.007655-17.381458-2.625816-2.018015-4.294702-5.0208-7.420674-6.472444v-13.853122c-5.169974-5.168771-10.242979-10.238044-15.578821-15.570093h-22.310505c-7.777928-7.776117-15.489508-15.485902-23.211296-23.208444h-1.406049c-2.4625 2.423659-4.820376 4.745269-7.139974 7.031161v1.665947c3.830272 3.831931 7.642681 7.638351 11.597992 11.595292v9.760966l9.030868-9.031317c.165868.168381.331736.33421.497604.50259h1.372875c3.064728 3.061464 5.986555 5.98261 8.974728 8.970088v.829147l-29.039637 29.035429h-13.187772v-14.223049c-2.559469-3.048707-5.427707-5.321844-8.318912-7.449561v-8.385859c-5.399637-5.385624-10.77886-10.745736-16.181049-16.133912h-3.628679v31.071303c7.21908 7.219951 14.448368 14.445005 21.971114 21.966h30.764663c-2.133316 3.092078-4.623886 5.028453-6.764857 7.263322-2.291529 2.395595-4.677474 4.699346-7.022591 7.043917l-6.739339 6.73777c-2.345117 2.344571-4.764236 4.620259-7.012384 7.054122-2.12566 2.298649-5.195492 3.49262-7.032798 6.362742v41.140966c-4.733614 4.704449-9.42895 9.37318-14.080906 13.99599v13.406659c-1.689301 1.609819-3.378601 3.224741-4.976037 4.747819v9.169083c-7.407914 7.403639-14.729067 14.723088-22.093601 22.083356h-23.446062v-19.585712c-3.812409-3.814073-7.410466-7.408742-10.809482-10.806966v-21.869054l-7.76772-7.768463c1.303977-2.285893 3.340324-3.727332 4.999003-5.487673 1.607642-1.709317 3.309702-3.331893 5.085764-5.107542v-16.802331l-11.526542-11.523859v-20.182697h-49.10965c-8.882862-8.880796-17.574339-17.570249-26.270919-26.264805v-33.898054c3.993588-4.997839 7.959106-9.959961 12.164494-15.220576h6.348912c.538433-.535756.92886-.928644 1.342254-1.33939v-9.53901c4.486088-3.561502 7.93614-7.837346 12.095596-11.567229h17.030803c2.061865-2.058834 4.003795-4.005415 5.830894-5.829536h19.304469c6.621956 6.635721 13.254119 13.279097 19.832694 19.868897h42.385622c3.710337-3.712024 7.423225-7.424049 11.079974-11.082497v-6.288757h-16.015181c-4.345739-4.344726-8.546024-8.544034-12.756516-12.753546-.482293-2.079244.341943-4.291151-.553743-6.648478-2.903964 1.944029-4.833135 4.566683-7.088938 6.533673 1.962344 1.910864 3.717992 3.617629 5.402189 5.258064-1.679093 1.742483-2.914171 3.025746-4.340635 4.510556-1.862824-1.193971-3.192319-2.944108-4.748925-4.423815-1.503018-1.42358-2.939689-2.921146-4.473329-4.454429v-3.747742c-5.820686-5.821883-11.472953-11.470283-17.301295-17.299819-1.602539.094395-1.602539.094395-3.493433 2.109858 0 .140317-.015311.280635.005104.415849.022966.122459.05614.270429.137798.352068 5.756891 5.755552 11.518886 11.506 17.196671 17.17481-.972241 1.038347-1.916412 2.040976-2.812099 2.997683-.229663 0-.367461.005103-.505259-.002551-.132694-.007654-.311321.017858-.387875-.056127-6.259599-6.242834-12.511542-12.493322-18.893627-18.873922h-7.716684l-26.309197 26.300522h-18.620583v-23.879415h22.170155v-11.386092c-.73237-.719444-1.888342-1.857288-2.832513-2.785932 7.984625-7.982766 16.163187-16.159424 24.79342-24.787649h30.392099c4.715751-4.714653 9.296256-9.294092 14.045181-14.044463v-5.454507c.102072-.109703.181179-.227059.288355-.303596.102072-.071434.234767-.137765.354702-.137765 4.677474-.007654 9.352396-.005103 14.157461-.005103v-5.610132h-15.856969c-1.332046-1.436336-2.54671-2.742561-3.904274-4.209512v-8.176658c3.531709-3.490069 7.157836-7.079634 10.903898-10.781454-.586917-1.574102-2.092487-2.375185-3.057072-3.607424-2.577332 1.625126-17.229845 16.075234-20.927422 20.560278l3.94 3.939083v2.55377c-1.903653 1.862391-3.873653 3.788561-5.792617 5.666259v6.29641c-1.770958 1.770546-3.319909 3.321687-5.052591 5.059068-1.469844-.92099-2.620712-2.467029-3.985932-3.760498-1.403498-1.329185-2.7432-2.727253-4.256425-4.240126v-6.467342c-2.084832 2.084346-4.258977 4.257985-6.009521 6.005571h-10.408847v-17.848332c14.685687-14.682268 29.435168-29.4308682 44.207617-44.199878h15.749792c1.334599-1.3751073 2.676853-2.7604195 3.937449-4.0615414 3.845582 3.8446878 7.62737 7.6255951 11.393847 11.3886439h12.761619c2.980518 2.9798244 5.813031 5.811678 8.645544 8.6460829-.076554 2.0715906-.076554 2.0715906-4.389119 6.3831516" fill="#dfe0dd"/><path d="m888.786935 418.068341-4.881619 4.880483c.990104 3.357405 5.363912 4.908547 4.861205 8.893552-3.988485 3.987556-7.885104 7.883268-11.613303 11.613151v13.865878c-6.422915.331658-12.863692.02041-19.074806.176034-8.119871-8.120532-16.114702-16.113502-23.994702-23.991668h-20.429819c-1.064106 1.066409-2.355324 2.288444-3.564883 3.587014-3.251011 3.484966-7.484469 5.890766-10.324638 9.569625h-24.392785v-43.013561h9.298809c5.420052-5.416239 10.743134-10.641137 15.94373-15.98339 2.084832-2.143025 4.27684-3.462005 7.423226-3.181371 2.73044.244917 5.50171.051024 8.546023.051024v-11.699892c5.565505.492385 10.852863 2.033321 16.303536.053575 5.744132 5.742795 11.564819 11.564678 17.704482 17.700361v-16.608439c.977345-.278083 1.620402-.431156 1.70206.6276.020414.242366.130142.545961.303666.691381 2.615608 2.199151 4.384015 5.153463 6.746994 7.561814 3.296943 3.359956 6.170285 7.059225 9.109974 10.717673 1.847513 2.303752 3.888964 4.500352 5.912552 6.63062 2.901412 3.058912 5.465985 6.398458 8.30105 9.503293 1.895997 2.076692 3.674611 4.293702 5.677785 6.291307.597124.596985.321528 1.267956.441463 2.063936" fill="#dfe0de"/><path d="m215.515703 39.8413746h-9.439158c-4.978588-4.9774292-9.627992-9.6257512-14.040077-14.0368097 3.095349-3.0946293 6.37443-6.3729464 9.944417-9.9421025 1.487707 1.0664098 2.98307 3.0385025 4.922448 4.7580244h5.213355c.288355-.8521073-.609884-1.0026292-.933964-1.4439902-.403186-.5510634-.95693-.9924244-1.444326-1.4797073l-1.7582-1.7577903c-.487396-.4872829-.972241-.977117-1.464741-1.4618488-.477189-.4694243-1.074313-.8878243-.581813-1.9950536h26.056567c-.918653-.9158878-1.742888-1.7399317-2.105246-2.1022049v-3.7400878h14.448368c.247526-.61739512.433808-1.08937073.643057-1.61237073h35.960155l3.942552 3.94163415c-4.674922 4.67383418-9.523368 9.52115118-14.374365 14.36846828.165868.2117512.329184.4209512.4925.6327024h-5.12149l-4.976036 4.9748781h-6.632163c-1.607643 1.6098195-3.072384 3.0742195-4.682578 4.6814878v6.0923122h-3.605712c-1.316736 1.3164293-2.488019 2.487439-3.659301 3.6558976.877824.7832243 1.7582 1.5715512 2.347668 2.0996536v6.5362244h-10.551748c-.737474-.8316976-1.735233-1.9593366-2.702371-3.0512585h-20.429818c-.43636-1.1506-.370013-2.1761903-.109728-3.3574049h4.641748z" fill="#e0e0de"/><path d="m283.73665 111.018868c-2.327254-2.329263-4.552435-4.553927-6.499469-6.497956h-4.269184v6.990342l7.849379 7.847551c-.951827.885273-2.105246 1.956785-3.057073 2.842058-1.459637-1.4644-3.184663-3.199229-4.598368-4.617707-1.648471.219405-2.628368-.186239-3.661852.471976l6.481606 6.480097c-1.980207.992425-3.50364.369927-5.129145.711791-.666023-.951605-1.370324-1.96444-1.793925-2.57163h-5.841101c-2.118005-2.1966-4.310013-4.472288-6.435673-6.67399h-11.758757c-.668575-1.112332-2.498225-1.502668-1.793925-3.719678 2.30684-4.324317 6.749547-3.900815 10.985557-3.678859.847202-.951604-1.036036-.938848-.270492-1.551141 1.725026-1.724624 3.452604-3.449249 5.17763-5.173873l-18.074495-18.070288h-27.352889c-1.015622-1.0128342-1.893446-1.8904537-2.888653-2.8879805v-11.0085122l4.381464-4.3804439h27.901528c3.927241 3.928878 7.818757 7.8169366 11.52399 11.5238585h6.147319c3.710337 3.7324342 7.400259 7.449561 11.301982 11.3758878v8.4394342h7.088937c1.686749 1.7373805 3.314806 3.4160831 4.93776 5.0896831h5.055142c.581813 1.160805.155661 2.408351.306218 3.594668-1.885791 1.803712-3.763925 3.602322-5.713511 5.464712" fill="#dfe0de"/><path d="m144.854712 93.5215844c-5.961036-5.9622-12.371191-12.3734146-18.998251-19.0014829-2.449741 2.4160048-5.060246 4.9876341-7.760065 7.6485561-3.557228-2.2399708-6.629611-4.9876342-9.551437-8.286361 3.452603-4.9570195 9.227357-7.5337512 12.710582-12.5698586 1.643368.150522 3.06728.2449171 4.667267.6709708 2.360428.6276 4.850998 1.4695024 7.474262 1.0434488 1.4775-.2372635 3.026451-.0433708 4.327876-.0433708 2.625816 2.6277561 5.144456 5.1458098 7.453847 7.4546634h8.806308c1.873031 1.8981074 3.802202 3.8497903 6.035039 6.1101708v-6.5056098c1.025829-.7475073 1.495363-.2933902 1.99807.2143025 1.936826 1.9593365 3.863445 3.9339804 5.85386 5.8397414 1.441775 1.3802098 2.613057 3.0614634 4.598368 3.8599951.699197.2806342 1.564261 1.068961 1.666334 1.7297269.250078 1.6021658 1.742889 2.0256683 2.482915 3.3038292v8.5312781z" fill="#dfe0de"/><path d="m852.593034 349.692342h8.961969c2.712577 2.714498 5.335842 5.342254 8.061178 8.07461-1.150868.581678-2.526295.022961-3.932344.362273.022966.92099.890583 1.199073 1.324391 1.734829.52057.640356 1.155971 1.183766 1.740337 1.770546.683886.681176 1.36522 1.362352 2.049106 2.046079.584365.584229 1.168731 1.168458 1.753096 1.755239.586917.584229 1.194249 1.148048 1.750544 1.760341.523122.576576 1.385635.969463 1.150868 2.204254h-6.394845c-2.271114-2.270586-4.863756-4.862625-7.244598-7.240361l-4.118627 4.117668h-7.441088c-3.064728-3.102283-6.157526-6.237732-9.490195-9.615546v-5.209591h-7.254805c3.613368-3.609975 7.129767-7.128107 10.424158-10.421731 2.888653 2.890531 5.981451 5.982609 8.660855 8.66139" fill="#e0e0de"/><path d="m594.483481 392.368121v16.613542c-2.051658 2.048629-4.103316 4.097258-6.114146 6.105068h-6.223873v-25.537707c4.904586-4.905995 9.770894-9.771171 14.292708-14.289381 2.416567 2.416005 5.10873 5.107542 7.578886 7.577122z" fill="#dfe0dd"/><path d="m762.889645 330.734995h8.946658c2.235389-.716893 3.508744-2.306302 4.919896-3.709473 3.493433-3.474761 6.971555-6.964829 10.694651-10.687059v18.776976l-7.168044 7.166376v6.421419h-17.393161z" fill="#e0e0de"/><path d="m824.347521 241.278014c-2.368083-2.367532-4.486088-4.485044-6.583679-6.582147 2.095039-2.102205 4.429948-4.449327 6.764857-6.796448 4.422293 0 8.839482 0 13.25412-.002552 2.832513-2.829302 5.662474-5.661156 8.635336-8.633327v-13.261239l7.734547-7.730195h8.803757c.357253 1.046-.293459 1.433786-.765544 1.905761-3.220389 3.222191-6.425467 6.457137-9.673925 9.651264-.722164.706688-1.288666 1.392966-1.005415 2.681331 1.7582 2.387942 4.889275 3.977352 5.716062 7.145966-3.567435 3.566605-7.065971 7.061776-10.755893 10.750839h-5.397086c-1.873031 1.872595-3.728199 3.727332-5.784961 5.783615-.877824-.875068-1.765855-1.765444-2.860583-2.859917-2.778925 2.732356-5.397086 5.306536-8.081593 7.947049" fill="#e0e0de"/><path d="m626.231868 52.2721917h11.689857c.946723-1.1199854 1.916412-2.2680341 2.753407-3.2579073h7.507435v4.4875951c-2.370634 1.9950537-5.440466.918439-8.591956 1.2654049-.576709.7781219-1.30908 1.7679951-1.783717 2.4083512h-8.727202c-6.775065 4.939161-11.983316 11.3503756-17.89842 16.8023317v5.5463512h3.873653v6.6229659c-2.102694.1020488-4.394223.0102049-6.463744.0433707-2.138419-2.1379219-4.172215-4.1737951-6.535194-6.5336731v-8.0848147c5.307772-5.3039853 10.671684-10.6666488 16.043251-16.0369658h4.986244c1.036036-1.0766147 2.087383-2.1659854 3.146386-3.2630098" fill="#dfe0de"/><path d="m446.185606 154.212545v-12.370863h9.66627v5.944341c-1.528537 1.528181-3.171904 3.171166-4.74127 4.740166 4.60092 4.6024 9.03342 9.031317 13.21329 13.210215v2.102205l-7.027694 7.026058h-9.367707c-.36491-1.959336-.109728-3.987556-.155661-5.990263-.045932-2.048629-.010207-4.097259-.010207-6.293859h3.547021c1.117694-.918439.199041-1.989951.635401-2.612448-2.069521-2.066488-4.003795-4.000313-5.759443-5.755552" fill="#e0e1df"/><g fill="#e0e0de"><path d="m751.973242 345.991288v11.748366c-4.368704 1.400619-6.573471-1.79861-9.10487-4.275844.148005-1.737381-1.819443-1.913415-2.411464-4.130425v-3.59977c-2.128212-2.125166-4.059935-4.051337-5.815583-5.804025v-5.367766c-3.557228-3.923775-7.62737-7.357717-11.268808-11.67438 1.862824-.8368 3.478122-.336761 4.950518-.540859z"/><path d="m736.859361 21.6838351c4.16456 4.520761 8.801205 8.4113708 12.626373 13.0877561.068899.0841903.010208.2678781.010208.4081951-.089314.0994976-.176075.2908391-.262837.2908391-6.435674.0127561-12.873899.0127561-18.806865.0127561-4.751477-4.7478195-9.280946-9.2762342-13.802759-13.7995464z"/><path d="m839.932466 61.3272351v-8.1639024h29.527034c2.357876 2.8063414 5.596127 5.0054927 7.680959 8.2787073.051036.0790878-.040829.2500195-.109728.5944341-3.904275-1.2781609-7.920829-.5867804-11.90421-.686278-4.141594-.1046-8.28829-.022961-12.432436-.022961z"/></g><path d="m401.895311 102.073272c1.77351 1.773098 3.429637 3.428839 4.919896 4.918751l-6.422914 6.42142h-19.766347c0-1.729727-.005104-3.604873-.005104-5.477468-.002552-1.910864 0-3.819176 0-5.862703z" fill="#dfe0dd"/><g fill="#e0e0de"><path d="m193.458848 46.5319478h8.648096c2.932034 2.9313512 5.953381 5.9519951 9.097215 9.0950976h26.390855c-1.714818 1.7169707-3.506191 3.5053756-5.591023 5.5897219h-27.893873v-7.7072341c-1.306529-1.3087756-2.477811-2.4772342-3.715441-3.7171269h-4.080349c-.893135-1.0204878-1.791373-2.0435268-2.85548-3.2604585"/><path d="m155.590447 51.2557859c1.653575.8087365 3.337772 1.6353317 5.616541 2.7502146h6.096283l-6.394845 6.3933561h-9.339637c-1.015622.7117902-.191386 1.7195219-.849754 2.4772341h-6.637267c-2.671749-2.6660244-5.279702-5.2708195-7.456399-7.4419073 2.352772-2.3522244 4.75658-4.7554732 6.953692-6.9546244l6.971554 6.9699317h4.289599c.819132-1.2577512-.201594-2.7323561.750233-4.1942048"/><path d="m195.833821 75.835v-11.0518829h13.667513l-6.379533 6.3780488h-3.845583v5.6892195c.834443.7373024 1.959792 1.732278 3.013691 2.6634731v2.8344049c.877824.8776195 1.806684 1.8113659 2.669197 2.6736781-.227111 1.4286829-1.423912 1.8317756-2.044002 2.7578683h-10.324638v-8.7787464c.926309-.9031317 2.008278-1.9593366 3.243355-3.1660634"/><path d="m191.513856 65.6102224c-.936515.8776196-1.796476 1.6812537-2.653886 2.4848878 1.352461 1.3546976 2.424223 2.4236586 3.544469 3.5436439v4.9442635c-1.148316 1.569-2.664093 2.8369561-4.794857 3.7834585h-3.761373c-1.426464-2.8624683-4.19263-4.5284146-6.24684-7.0413659v-7.7148878z"/><path d="m918.492851 463.59664c-.40829 2.329263 2.385946 2.791034 1.814339 4.740165l-5.833445 5.834639v3.528337c-2.852928 2.821649-5.695648 5.630541-8.73741 8.64098h-6.00952v-3.982453c6.073316-6.071903 12.090492-12.087678 18.766036-18.761668"/><path d="m297.790508 185.638212v-8.76599l8.290842-8.288912c1.048795 3.232395 1.020725 4.273292-.127591 9.12061l6.879689 6.878087c-.237318.556166-.265388.686278-.339391.788327-.079106.1046-.19649.257673-.298562.257673-4.682578.010205-9.365156.010205-14.404987.010205"/><path d="m120.270031 51.26446c.102073-.7143415.040829-1.0715122.186282-1.2194829 3.743511-3.7758049 7.504884-7.5312 11.039146-11.0620878 2.661541 2.6609219 5.134248 5.1305024 7.392603 7.3908829-1.321839 1.2858146-2.960103 2.8803268-5.021969 4.8906878z"/></g><path d="m920.020367 459.515709c.987551-.844454 1.918963-1.640434 2.748303-2.347122v-5.944342c.56395-.71179 1.321839-.193892 1.947033-.464322 1.653575 1.719522 3.271425 3.400776 4.884171 5.08203.806373-.683727 1.492811-1.262854 1.837306-1.553693 1.311632 1.227137 2.457396 2.298649 3.41943 3.196678-2.554365 2.553771-5.254184 5.252961-8.244909 8.240439h-.377669c-2.166489-2.165985-3.998691-3.99521-6.213665-6.209668" fill="#e1e1df"/><path d="m792.579229 347.138571v8.028688c-.745129.596985-1.439223.270429-2.380842.352068v-6.515814c-1.209559-.066332-2.138419-.119908-3.233147-.181137v-4.640668c1.074313-1.051103 2.347668-2.298649 3.633782-3.558951h5.772202c.875272 1.10978-.020414 2.410902.78851 4.102361.63285.540858 1.781166 1.517975 2.79934 2.382839v5.770858h-4.853549v-5.207039c-.719612-.719444-1.44943-.280634-2.526296-.533205" fill="#e1e1df"/><path d="m226.04321 119.306505c-2.447189.367375-3.03921-1.801161-4.511606-2.69919v-8.727722h6.282564c2.967759 2.97217 6.07842 6.084658 9.395778 9.406346-1.051348.8368-1.594884 2.334366-3.786892 1.992502-.995207-.994975-2.217526-2.217009-3.6593-3.655897-1.390738 1.377658-2.620713 2.59459-3.720544 3.683961" fill="#e1e1df"/><path d="m189.756933 58.8408166h-7.660544c-.951827-.859761-.051037-2.0817951-.63285-3.1737171h-3.723096v-5.811678h5.458329l2.651334-2.6532683c1.982759-.2908391 2.577332 1.8674927 3.906827 2.6838829z" fill="#e0e1df"/><path d="m234.115872 268.607698h5.54509c1.679094 1.678702 3.31991 3.319136 4.779547 4.780985h4.697889l5.409844 5.408585c-2.398704.75261-4.156904.4184-5.869171.477078-1.653575.056127-3.312254.012756-5.24908.012756l-9.90614-9.906385c.19649-.257673.395531-.515346.592021-.773019" fill="#e1e1df"/><path d="m178.417184 37.3559766h-4.608575c-1.737785-2.0562829-4.121179-3.6507951-5.79772-6.5158146 1.824546-.091844 3.273976-.1658293 4.866308-.2449171.742578.8980292 1.515777 1.8343268 2.095039 2.5359122h7.104248c1.178938 1.2577512 2.39105 2.5486683 3.621024 3.8574439v4.3625853h-5.481296c-.604779-1.2271365.540985-3.1303463-1.799028-3.9952097" fill="#e0e0de"/><path d="m775.943957 360.502624v4.013069h-8.757824l-3.215285-3.214537h-6.854171v-5.212141c1.023278 1.173561 1.809236 2.07159 2.396153 2.742561h5.328187c.890583-.818942 1.543847-2.02822 2.878445-1.676152 1.229975 1.270508 2.36298 2.438966 3.243355 3.3472z" fill="#e0e1df"/><path d="m810.810916 310.093588v5.997917c-.643057 1.153152-1.750544 1.446542-3.008588 1.410825-.556296.903131-.165868 1.872595-.301114 2.933902-1.500467.714342-3.118316-.030614-4.817824.45922v-3.857444c-1.329495-.92099-2.768718-.122459-4.016555-.609742-.923756-.724546-1.380531-1.620024-.941619-2.987478h5.384327c2.743199-1.441439 4.256425-4.130424 7.701373-3.3472" fill="#e1e1df"/><path d="m862.402715 476.482339c.377668.033166-.191386.081639-.681334-.094395-.349599-.12501-.594573-.548512-1.018174-.972015v-8.628224h11.396399z" fill="#dfe0de"/><path d="m431.659663 168.09118c2.63092-3.740088 9.224806-10.202327 11.626062-11.511103 1.168731 3.908468-.398083 7.623044-.666023 11.511103z" fill="#dfe0de"/><path d="m54.9931114 239.631201c2.7304404 2.867571 5.7441321 5.110093 8.3750518 8.046547-1.135557 1.762892-2.7891321 2.99258-4.1696632 4.451878-1.2784585 1.352146-2.6232642 2.640512-4.2053886 4.222268z" fill="#e0e1df"/><path d="m798.325913 282.742729v6.148439c-.798717.801083-1.574469 1.574103-2.477811 2.477234v5.018249c-.862513.614844-1.332046.168381-1.827098-.339312-1.245285-1.273059-2.510985-2.520605-3.840479-3.847239v-3.459454c.637953-.622497 1.360116-.193892 2.194559-.385234.614987-1.729727-.08421-3.655897.387876-5.612683z" fill="#e1e1df"/><path d="m269.266847 284.119367h-11.15908c-.405739-1.665946-.040829-3.530887-.216904-5.520839h5.856412c1.921515 1.92362 3.723095 3.72223 5.519572 5.520839" fill="#e2e2e0"/><path d="m113.703449 183.151794h1.620402c.076554 5.278473.025518 10.572253.033174 15.860931.010207 5.209591.002551 10.421732.002551 15.631322h-1.620401c-.076555-5.278473-.025518-10.569702-.035726-15.860931-.007655-5.212142 0-10.421732 0-15.631322" fill="#eaeae8"/><path d="m823.350527 344.481476v-3.742639h8.015246v6.263244c-1.043691.951605-2.357875 2.153229-3.789443 3.459454v-5.263166c-1.439222-.880171-2.710026-.08419-4.225803-.716893" fill="#e0e0de"/><path d="m877.865684 352.882642c.08421-.765366.153109-1.418478.216904-2.015463.495052-.551064 1.081969-.201547 1.839858-.377581.551191.767917 1.184041 1.648088 2.199663 3.061463v.737303c-1.166179 1.160805-2.337461 2.326712-3.631231 3.612527h-3.590401c-1.201904-1.273059-2.49057-2.637961-3.661853-3.880405.150557-.443912.160765-.64801.237319-.673522 1.990415-.696483 4.05228-.030615 6.389741-.464322" fill="#e2e2e0"/><path d="m791.773111 265.956725c1.451982-1.523078 2.666645-2.798687 4.019107-4.217165 1.462189.678624 2.309391 2.099653 3.641437 3.194126-.875272 1.849634-2.664093 2.768074-3.646541 4.242678-.90079.135215-1.696956.497488-2.357876-.250019-.775751-.87762-2.028691-1.495015-1.656127-2.96962" fill="#e1e1df"/><path d="m805.664929 363.090071h6.721476v3.196678c-3.289287-.431156-6.425466.352069-8.96452 2.02822-1.18149-.908234-.750233-1.655742-.908446-2.42621.967137-.859761 1.987863-1.767995 3.15149-2.798688" fill="#e0e1df"/><path d="m794.333601 337.153863h9.79386v-2.201702h-9.79386z" fill="#e0e1df"/><path d="m53.9476334 232.186743v3.035951h-7.1042487c-.5971243-.806185-.2347668-1.864941-.1811787-3.035951z" fill="#e2e2e0"/><path d="m30.8792396 229.423772v-3.867649h4.7106477c.4363601 1.10723.1377979 2.42621.1531088 3.867649z" fill="#e2e2e0"/><path d="m766.792133 279.656009c-1.219766 1.270507-2.43443 2.541014-3.700129 3.859995-1.342254-.306146-2.092487-1.035795-1.964896-2.875224.145453-.79343 1.321839-1.193971 1.906204-2.066488 1.474948-.247469 2.911619-.397991 3.758821 1.081717" fill="#e0e1df"/></g></svg>