<svg viewBox="0 0 16 16" xmlns="http://www.w3.org/2000/svg" fill-rule="evenodd" clip-rule="evenodd" stroke-linejoin="round" stroke-miterlimit="1.414"><path d="M10.9 10.5s1 1.8 1.2 2.2c.3.5-.1.8-.1.8s-.5.3-.8-.2c-.2-.4-.9-1.6-1.2-2-.3-.5-.5-.7-.9-.7H7c-.4 0-.6.2-.9.7-.3.4-1 1.6-1.2 2-.3.5-.8.2-.8.2s-.3-.3-.1-.8c.2-.4 1.2-2.2 1.2-2.2s.3-.4.3-.7v-2c0-.3-.3-.7-.3-.7S4.3 5.3 4 4.9c-.2-.5.1-.8.1-.8s.5-.3.8.2c.2.4.9 1.6 1.2 2 .3.6.5.7.9.7h2.1c.4 0 .6-.2.9-.7.3-.4 1-1.6 1.2-2 .3-.4.8-.2.8-.2s.4.2.1.8c-.2.4-1.2 2.2-1.2 2.2s-.3.4-.3.7v2c0 .3.3.7.3.7M7 1.1h3c.3 0 .5.3.5.6s-.2.6-.5.6H7c-.2 0-.4-.3-.4-.6s.2-.6.4-.6m6.6 1C13.5 1.9 13 1 13 1s.2-.1.3-.2c.1 0 .2-.1 0-.3-.1-.2-.2-.2-.2-.2l-.4.2c-.3-.5-.7-.5-.8-.5h-.6c-.1 0-.2 0-.3.1-.1.1-.2.1-.3.1H6.3h-.1c-.3-.2-.6 0-.7 0-.1.1-.3.5-.5.6-.2.2-.3.3-.4.3.1-.1 0-.2 0-.2L4.5.8l.1-.2h.1V.5s-.1 0-.1.1c-.1 0-.1.1-.1.1 0 .2-.2.2-.2.2L4 .2c0-.1-.1-.2-.9.2-.9.4-.7.6-.7.6l.3.5-.1.1.2.4s-.1 0-.2.1c-.2.2-.4.3-.4.6v12c0 .9.3 1.3 1.3 1.3h9.1c.6 0 1.2-.3 1.2-1.3V2.8c0-.5-.1-.6-.2-.7M9.4 7.8H6.8c-.2 0-.4.2-.4.5v1.1c0 .2.2.4.4.4h2.6c.2 0 .4-.2.4-.4V8.3c0-.3-.2-.5-.4-.5"/></svg>